<svg width="50" height="50" viewBox="0 0 50 50" fill="none" xmlns="http://www.w3.org/2000/svg">
<rect width="50" height="50" fill="#2B2B2B"/>
<path d="M24.59 35.825H13.34L11.63 41H2.36L13.925 9.27499H24.095L35.615 41H26.3L24.59 35.825ZM22.385 29.075L18.965 18.815L15.59 29.075H22.385Z" fill="white"/>
<path d="M42.7647 41.36C41.2047 41.36 39.9447 40.94 38.9847 40.1C38.0547 39.23 37.5897 38.135 37.5897 36.815C37.5897 35.495 38.0547 34.4 38.9847 33.53C39.9447 32.66 41.2047 32.225 42.7647 32.225C44.2947 32.225 45.5247 32.66 46.4547 33.53C47.4147 34.4 47.8947 35.495 47.8947 36.815C47.8947 38.105 47.4147 39.185 46.4547 40.055C45.5247 40.925 44.2947 41.36 42.7647 41.36Z" fill="white"/>
</svg>
