<svg width="500" height="500" viewBox="0 0 500 500" fill="none" xmlns="http://www.w3.org/2000/svg">
<path d="M252.831 355.452H144.617L128.168 407.387H39L150.244 89H248.07L358.881 407.387H269.28L252.831 355.452ZM231.621 287.71L198.724 184.742L166.26 287.71H231.621Z" fill="white"/>
<path d="M427.654 411C412.649 411 400.529 406.785 391.294 398.355C382.349 389.624 377.876 378.634 377.876 365.387C377.876 352.14 382.349 341.151 391.294 332.419C400.529 323.688 412.649 319.323 427.654 319.323C442.371 319.323 454.203 323.688 463.149 332.419C472.383 341.151 477 352.14 477 365.387C477 378.333 472.383 389.172 463.149 397.903C454.203 406.634 442.371 411 427.654 411Z" fill="white"/>
</svg>
