<svg width="500" height="500" viewBox="0 0 500 500" fill="none" xmlns="http://www.w3.org/2000/svg">
<path d="M269.027 340.87H175.39L161.157 385.87H84L180.259 110H264.907L360.792 385.87H283.26L269.027 340.87ZM250.674 282.174L222.209 192.957L194.117 282.174H250.674Z" fill="white"/>
<path d="M420.301 389C407.317 389 396.83 385.348 388.839 378.043C381.099 370.478 377.228 360.956 377.228 349.478C377.228 338 381.099 328.478 388.839 320.913C396.83 313.348 407.317 309.565 420.301 309.565C433.036 309.565 443.274 313.348 451.014 320.913C459.005 328.478 463 338 463 349.478C463 360.696 459.005 370.087 451.014 377.652C443.274 385.217 433.036 389 420.301 389Z" fill="white"/>
</svg>
